<svg width="126" height="126" viewBox="0 0 126 126" fill="none" xmlns="http://www.w3.org/2000/svg">
<path d="M28.2998 45.4L34.5998 42.9C36.1998 42.3 37.9998 41.9 39.6998 41.9C40.4998 41.9 41.1998 42 41.9998 42.1C41.5998 39.6 41.7998 37 42.7998 34.6L45.2998 28.3L20.7998 20.7L28.2998 45.4Z" fill="#32CAD4"/>
<path d="M45.3996 97.7L42.8996 91.4C41.8996 89 41.6996 86.4 42.0996 83.9C41.2996 84 40.4996 84.1 39.6996 84.1C37.8996 84.1 36.1996 83.8 34.4996 83.1L28.1996 80.6L20.5996 105.1L45.3996 97.7Z" fill="#32CAD4"/>
<path d="M97.7002 80.6L91.4002 83.1C89.8002 83.7 88.0002 84.1 86.3002 84.1C85.5002 84.1 84.8002 84 84.0002 83.9C84.4002 86.4 84.2002 89 83.2002 91.4L80.7002 97.7L105.2 105.3L97.7002 80.6Z" fill="#32CAD4"/>
<path d="M80.5996 28.3L83.0996 34.6C84.0996 37 84.2996 39.6 83.8996 42.1C84.6996 42 85.4996 41.9 86.2996 41.9C88.0996 41.9 89.7996 42.2 91.4996 42.9L97.7996 45.4L105.4 20.9L80.5996 28.3Z" fill="#32CAD4"/>
<path d="M0 63L36.8 77.6C37.8 78 38.8 78.2 39.7 78.2C40.7 78.2 41.7 78 42.7 77.6C39.7 73.5 38 68.5 38 63C38 57.6 39.7 52.6 42.7 48.5C41.8 48.1 40.8 47.9 39.8 47.9C38.8 47.9 37.8 48.1 36.9 48.5L0 63Z" fill="#32CAD4"/>
<path d="M62.9996 126L77.5996 89.2C78.3996 87.3 78.2996 85.2 77.5996 83.3C73.4996 86.3 68.4996 88 62.9996 88C57.5996 88 52.5996 86.3 48.4996 83.3C47.7996 85.2 47.6996 87.2 48.4996 89.2L62.9996 126Z" fill="#32CAD4"/>
<path d="M126 63L89.1998 48.4C88.1998 48 87.1998 47.8 86.2998 47.8C85.2998 47.8 84.2998 48 83.2998 48.4C86.2998 52.5 87.9998 57.5 87.9998 63C87.9998 68.4 86.2998 73.4 83.2998 77.5C84.1998 77.9 85.1998 78.1 86.1998 78.1C87.1998 78.1 88.1998 77.9 89.0998 77.5L126 63Z" fill="#32CAD4"/>
<path d="M63 0L48.4 36.8C47.6 38.7 47.7 40.8 48.4 42.7C52.5 39.7 57.5 38 63 38C68.4 38 73.4 39.7 77.5 42.7C78.2 40.8 78.3 38.8 77.5 36.8L63 0Z" fill="#32CAD4"/>
<path d="M63 82C73.4934 82 82 73.4934 82 63C82 52.5066 73.4934 44 63 44C52.5066 44 44 52.5066 44 63C44 73.4934 52.5066 82 63 82Z" fill="#32CAD4"/>
</svg>
