<svg width="288" height="78" viewBox="0 0 288 78" fill="none" xmlns="http://www.w3.org/2000/svg">
<path d="M17.5193 28.1049L21.4193 26.5573C22.4098 26.1859 23.5241 25.9383 24.5765 25.9383C25.0717 25.9383 25.505 26.0002 26.0003 26.0621C25.7527 24.5145 25.8765 22.9049 26.4955 21.4192L28.0431 17.5192L12.8765 12.8145L17.5193 28.1049Z" fill="#32CAD4"/>
<path d="M28.1048 60.4807L26.5572 56.5807C25.9382 55.095 25.8143 53.4855 26.062 51.9379C25.5667 51.9998 25.0715 52.0617 24.5762 52.0617C23.462 52.0617 22.4096 51.876 21.3572 51.4426L17.4572 49.895L12.7524 65.0617L28.1048 60.4807Z" fill="#32CAD4"/>
<path d="M60.4808 49.895L56.5808 51.4426C55.5904 51.8141 54.4761 52.0617 53.4237 52.0617C52.9285 52.0617 52.4951 51.9998 51.9999 51.9379C52.2475 53.4855 52.1237 55.095 51.5047 56.5807L49.957 60.4807L65.1237 65.1855L60.4808 49.895Z" fill="#32CAD4"/>
<path d="M49.8955 17.5189L51.4431 21.4189C52.0622 22.9047 52.186 24.5142 51.9384 26.0618C52.4336 25.9999 52.9288 25.938 53.4241 25.938C54.5384 25.938 55.5907 26.1237 56.6431 26.557L60.5431 28.1047L65.2479 12.938L49.8955 17.5189Z" fill="#32CAD4"/>
<path d="M0 39L22.781 48.0381C23.4 48.2857 24.019 48.4095 24.5762 48.4095C25.1952 48.4095 25.8143 48.2857 26.4333 48.0381C24.5762 45.5 23.5238 42.4047 23.5238 39C23.5238 35.6571 24.5762 32.5619 26.4333 30.0238C25.8762 29.7762 25.2571 29.6523 24.6381 29.6523C24.019 29.6523 23.4 29.7762 22.8429 30.0238L0 39Z" fill="#32CAD4"/>
<path d="M39.0001 77.9997L48.0382 55.2188C48.5334 54.0426 48.4715 52.7426 48.0382 51.5664C45.5001 53.4235 42.4048 54.4759 39.0001 54.4759C35.6572 54.4759 32.562 53.4235 30.0239 51.5664C29.5906 52.7426 29.5287 53.9807 30.0239 55.2188L39.0001 77.9997Z" fill="#32CAD4"/>
<path d="M78.0002 38.9999L55.2193 29.9618C54.6002 29.7141 53.9812 29.5903 53.424 29.5903C52.805 29.5903 52.1859 29.7141 51.5669 29.9618C53.424 32.4999 54.4764 35.5951 54.4764 38.9999C54.4764 42.3427 53.424 45.438 51.5669 47.976C52.124 48.2237 52.7431 48.3475 53.3621 48.3475C53.9812 48.3475 54.6002 48.2237 55.1574 47.976L78.0002 38.9999Z" fill="#32CAD4"/>
<path d="M39 0L29.9619 22.781C29.4666 23.9571 29.5285 25.2571 29.9619 26.4333C32.5 24.5762 35.5952 23.5238 39 23.5238C42.3428 23.5238 45.4381 24.5762 47.9762 26.4333C48.4095 25.2571 48.4714 24.019 47.9762 22.781L39 0Z" fill="#32CAD4"/>
<path d="M39.0002 50.7621C45.4961 50.7621 50.7621 45.4961 50.7621 39.0002C50.7621 32.5043 45.4961 27.2383 39.0002 27.2383C32.5043 27.2383 27.2383 32.5043 27.2383 39.0002C27.2383 45.4961 32.5043 50.7621 39.0002 50.7621Z" fill="#32CAD4"/>
<path d="M102 53.4347H105.537V39.8277H118.469V36.7591H105.537V27.755H121.063V24.5653H102V53.4347Z" fill="#FCFCFC"/>
<path d="M123.842 53.4347H127.458L130.484 44.6326H141.686L144.673 53.4347H148.525L138.149 24.5653H134.179L123.842 53.4347ZM134.847 31.9946C135.397 30.3392 136.144 27.9166 136.144 27.9166H136.223C136.223 27.9166 136.93 30.3795 137.481 31.9946L140.704 41.6851H131.506L134.847 31.9946Z" fill="#FCFCFC"/>
<path d="M155.5 53.4347H159.037V41.2409H166.859C170.632 41.2409 172.283 42.7349 172.558 46.9744C172.873 51.8196 172.99 52.9098 173.58 53.4347H177.393V53.2732C176.882 52.9098 176.41 51.7389 176.096 47.0956C175.82 42.8156 174.916 40.7968 172.047 39.747V39.6258C175.427 38.4953 176.921 35.9919 176.921 32.4791C176.921 27.755 173.58 24.5653 168.628 24.5653H155.5V53.4347ZM159.037 27.7147H167.566C171.693 27.7147 173.266 29.4912 173.266 33.004C173.266 36.2746 171.3 38.2934 167.37 38.2934H159.037V27.7147Z" fill="#FCFCFC"/>
<path d="M195.367 54C201.42 54 205.704 50.9717 205.704 45.5612C205.704 39.0606 200.712 37.6878 195.249 36.5572C191.043 35.7093 187.899 34.7402 187.899 31.4697C187.899 28.4818 190.414 26.8264 194.227 26.8264C198.354 26.8264 200.948 28.8856 201.459 33.004H204.8C204.093 27.6743 201.184 24 194.148 24C188.449 24 184.597 26.8668 184.597 31.6312C184.597 37.0821 188.842 38.5357 193.795 39.6662C198.826 40.7968 202.206 41.7254 202.206 45.6824C202.206 49.2759 199.415 51.0929 195.524 51.0929C190.218 51.0929 187.309 48.5491 186.838 43.6635H183.379C183.693 49.4778 187.466 54 195.367 54Z" fill="#FCFCFC"/>
<path d="M210.532 27.755H219.886V53.4347H223.424V27.755H232.778V24.5653H210.532V27.755Z" fill="#FCFCFC"/>
<path d="M234.449 53.4347H238.065L241.092 44.6326H252.294L255.281 53.4347H259.133L248.756 24.5653H244.786L234.449 53.4347ZM245.455 31.9946C246.005 30.3392 246.752 27.9166 246.752 27.9166H246.83C246.83 27.9166 247.538 30.3795 248.088 31.9946L251.311 41.6851H242.114L245.455 31.9946Z" fill="#FCFCFC"/>
<path d="M266.107 53.4347H269.644V41.2409H277.466C281.24 41.2409 282.89 42.7349 283.165 46.9744C283.48 51.8196 283.598 52.9098 284.187 53.4347H288V53.2732C287.489 52.9098 287.017 51.7389 286.703 47.0956C286.428 42.8156 285.524 40.7968 282.654 39.747V39.6258C286.035 38.4953 287.528 35.9919 287.528 32.4791C287.528 27.755 284.187 24.5653 279.235 24.5653H266.107V53.4347ZM269.644 27.7147H278.174C282.301 27.7147 283.873 29.4912 283.873 33.004C283.873 36.2746 281.908 38.2934 277.977 38.2934H269.644V27.7147Z" fill="#FCFCFC"/>
</svg>
